<svg width="32" height="32" viewBox="0 0 32 32" fill="none" xmlns="http://www.w3.org/2000/svg">
<rect width="32" height="32" rx="8" fill="#484C72"/>
<path d="M16.4735 7.24689C14.4635 5.23689 11.4535 4.82689 9.03355 6.00689L12.6635 9.63689C13.0535 10.0269 13.0535 10.6569 12.6635 11.0469L11.0735 12.6369C10.6835 13.0369 10.0535 13.0369 9.66355 12.6369L6.03355 9.00689C4.86355 11.4369 5.27355 14.4269 7.28355 16.4369C9.14355 18.2969 11.8635 18.7869 14.1735 17.9169L22.1335 25.8769C23.1635 26.9069 24.8235 26.9069 25.8435 25.8769C26.8735 24.8469 26.8735 23.1869 25.8435 22.1669L17.9235 14.2369C18.8435 11.8969 18.3635 9.13689 16.4735 7.24689Z" fill="#8F7DFA"/>
</svg>
